<?xml version="1.0" standalone="no"?>
<!DOCTYPE svg PUBLIC "-//W3C//DTD SVG 20010904//EN"
 "http://www.w3.org/TR/2001/REC-SVG-20010904/DTD/svg10.dtd">
<svg version="1.0" xmlns="http://www.w3.org/2000/svg"
 width="227.000000pt" height="222.000000pt" viewBox="0 0 227.000000 222.000000"
 preserveAspectRatio="xMidYMid meet">
<metadata>
Created by potrace 1.14, written by Peter Selinger 2001-2017
</metadata>
<g transform="translate(0.000000,222.000000) scale(0.100000,-0.100000)"
fill="#fff" stroke="none">
<path d="M1465 2189 c-49 -16 -137 -36 -195 -45 -58 -10 -240 -50 -404 -91
-232 -57 -307 -79 -333 -99 -18 -14 -33 -28 -34 -32 0 -4 -7 -56 -15 -117 -9
-60 -20 -166 -26 -235 -6 -69 -12 -126 -13 -128 -2 -2 -36 -11 -76 -21 -235
-58 -401 -130 -359 -156 48 -29 343 -62 446 -49 58 7 57 9 70 -96 3 -30 16
-77 27 -103 25 -60 15 -103 -41 -174 l-38 -47 110 -86 c150 -115 426 -394 561
-568 61 -77 116 -141 123 -141 17 -1 48 53 73 129 40 121 75 166 109 145 21
-13 223 17 258 37 66 40 79 89 37 150 -33 49 -32 90 3 129 l28 32 160 -47 c87
-26 171 -51 186 -56 20 -6 28 -5 33 7 3 9 2 20 -2 24 -4 4 -57 22 -118 39
-261 76 -253 73 -253 95 -1 11 -4 48 -8 82 l-6 61 38 -5 c54 -7 135 25 152 59
17 36 8 57 -90 196 l-83 117 0 107 c0 60 2 108 5 108 3 0 34 5 68 10 35 6 140
14 233 19 93 4 172 11 176 14 13 13 -14 28 -68 37 -30 6 -143 13 -252 16
l-197 7 -19 61 c-10 34 -22 95 -26 136 -3 41 -12 89 -20 105 -7 17 -19 102
-26 190 -12 153 -14 161 -40 188 -33 33 -40 33 -154 -4z"/>
</g>
</svg>
